<mxfile host="app.diagrams.net" agent="Mozilla/5.0 (Macintosh; Intel Mac OS X 10_15_7) AppleWebKit/605.1.15 (KHTML, like Gecko) Version/18.0 Safari/605.1.15" version="24.7.8">
  <diagram name="Page-1" id="FL7bL9q4-HOBHpss6M4T">
    <mxGraphModel dx="984" dy="666" grid="1" gridSize="10" guides="1" tooltips="1" connect="1" arrows="1" fold="1" page="1" pageScale="1" pageWidth="827" pageHeight="1169" math="0" shadow="0">
      <root>
        <mxCell id="0" />
        <mxCell id="1" parent="0" />
        <mxCell id="r8BIYTinJZO4QaLTLXx8-1" value="Drive-Unit&lt;div&gt;&lt;br&gt;&lt;/div&gt;" style="sketch=0;outlineConnect=0;fontColor=#232F3E;gradientColor=none;fillColor=#002AFA;strokeColor=none;dashed=0;verticalLabelPosition=bottom;verticalAlign=top;align=center;html=1;fontSize=12;fontStyle=0;aspect=fixed;pointerEvents=1;shape=mxgraph.aws4.iot_thing_industrial_pc;" vertex="1" parent="1">
          <mxGeometry x="100" y="280" width="78" height="78" as="geometry" />
        </mxCell>
        <mxCell id="r8BIYTinJZO4QaLTLXx8-2" value="Research-unit:3&lt;div&gt;&lt;br&gt;&lt;div&gt;&lt;br&gt;&lt;/div&gt;&lt;/div&gt;" style="sketch=0;outlineConnect=0;fontColor=#232F3E;gradientColor=none;fillColor=#7AA116;strokeColor=none;dashed=0;verticalLabelPosition=bottom;verticalAlign=top;align=center;html=1;fontSize=12;fontStyle=0;aspect=fixed;pointerEvents=1;shape=mxgraph.aws4.iot_thing_industrial_pc;" vertex="1" parent="1">
          <mxGeometry x="530" y="280" width="78" height="78" as="geometry" />
        </mxCell>
        <mxCell id="r8BIYTinJZO4QaLTLXx8-8" value="" style="sketch=0;pointerEvents=1;shadow=0;dashed=0;html=1;strokeColor=none;fillColor=#434445;aspect=fixed;labelPosition=center;verticalLabelPosition=bottom;verticalAlign=top;align=center;outlineConnect=0;shape=mxgraph.vvd.ethernet_port;" vertex="1" parent="1">
          <mxGeometry x="178" y="280" width="20" height="20" as="geometry" />
        </mxCell>
        <mxCell id="r8BIYTinJZO4QaLTLXx8-9" value="" style="sketch=0;pointerEvents=1;shadow=0;dashed=0;html=1;strokeColor=none;fillColor=#434445;aspect=fixed;labelPosition=center;verticalLabelPosition=bottom;verticalAlign=top;align=center;outlineConnect=0;shape=mxgraph.vvd.ethernet_port;" vertex="1" parent="1">
          <mxGeometry x="510" y="280" width="20" height="20" as="geometry" />
        </mxCell>
        <mxCell id="r8BIYTinJZO4QaLTLXx8-10" value="" style="shape=mxgraph.rack.hp.hp_6125g_ethernet_blade_switch;html=1;labelPosition=right;align=left;spacingLeft=15;dashed=0;shadow=0;fillColor=#ffffff;rotation=-90;" vertex="1" parent="1">
          <mxGeometry x="340" y="200" width="20" height="61" as="geometry" />
        </mxCell>
        <mxCell id="r8BIYTinJZO4QaLTLXx8-16" value="" style="endArrow=none;html=1;rounded=0;entryX=-0.025;entryY=0.008;entryDx=0;entryDy=0;entryPerimeter=0;fillColor=#ffe6cc;strokeColor=#d79b00;strokeWidth=5;" edge="1" parent="1" source="r8BIYTinJZO4QaLTLXx8-8" target="r8BIYTinJZO4QaLTLXx8-10">
          <mxGeometry width="50" height="50" relative="1" as="geometry">
            <mxPoint x="390" y="370" as="sourcePoint" />
            <mxPoint x="440" y="320" as="targetPoint" />
            <Array as="points">
              <mxPoint x="320" y="290" />
            </Array>
          </mxGeometry>
        </mxCell>
        <mxCell id="r8BIYTinJZO4QaLTLXx8-17" value="" style="endArrow=none;html=1;rounded=0;entryX=0.002;entryY=0.967;entryDx=0;entryDy=0;entryPerimeter=0;fillColor=#ffe6cc;strokeColor=#d79b00;strokeWidth=5;" edge="1" parent="1" source="r8BIYTinJZO4QaLTLXx8-9" target="r8BIYTinJZO4QaLTLXx8-10">
          <mxGeometry width="50" height="50" relative="1" as="geometry">
            <mxPoint x="360" y="289" as="sourcePoint" />
            <mxPoint x="512" y="240" as="targetPoint" />
            <Array as="points">
              <mxPoint x="378" y="290" />
            </Array>
          </mxGeometry>
        </mxCell>
        <mxCell id="r8BIYTinJZO4QaLTLXx8-21" value="" style="endArrow=none;html=1;rounded=0;fillColor=#ffe6cc;strokeColor=#d79b00;strokeWidth=5;exitX=1.025;exitY=0.156;exitDx=0;exitDy=0;exitPerimeter=0;" edge="1" parent="1" source="r8BIYTinJZO4QaLTLXx8-10" target="r8BIYTinJZO4QaLTLXx8-22">
          <mxGeometry width="50" height="50" relative="1" as="geometry">
            <mxPoint x="329" y="220" as="sourcePoint" />
            <mxPoint x="230" y="160" as="targetPoint" />
            <Array as="points">
              <mxPoint x="329" y="160" />
            </Array>
          </mxGeometry>
        </mxCell>
        <mxCell id="r8BIYTinJZO4QaLTLXx8-20" value="Research-unit:1&lt;div&gt;&lt;br&gt;&lt;div&gt;&lt;br&gt;&lt;/div&gt;&lt;/div&gt;" style="sketch=0;outlineConnect=0;fontColor=#232F3E;gradientColor=none;fillColor=#7AA116;strokeColor=none;dashed=0;verticalLabelPosition=bottom;verticalAlign=top;align=center;html=1;fontSize=12;fontStyle=0;aspect=fixed;pointerEvents=1;shape=mxgraph.aws4.iot_thing_industrial_pc;" vertex="1" parent="1">
          <mxGeometry x="100" y="150" width="78" height="78" as="geometry" />
        </mxCell>
        <mxCell id="r8BIYTinJZO4QaLTLXx8-22" value="" style="sketch=0;pointerEvents=1;shadow=0;dashed=0;html=1;strokeColor=none;fillColor=#434445;aspect=fixed;labelPosition=center;verticalLabelPosition=bottom;verticalAlign=top;align=center;outlineConnect=0;shape=mxgraph.vvd.ethernet_port;" vertex="1" parent="1">
          <mxGeometry x="178" y="150" width="20" height="20" as="geometry" />
        </mxCell>
        <mxCell id="r8BIYTinJZO4QaLTLXx8-23" value="" style="sketch=0;pointerEvents=1;shadow=0;dashed=0;html=1;strokeColor=none;fillColor=#434445;aspect=fixed;labelPosition=center;verticalLabelPosition=bottom;verticalAlign=top;align=center;outlineConnect=0;shape=mxgraph.vvd.ethernet_port;" vertex="1" parent="1">
          <mxGeometry x="510" y="150" width="20" height="20" as="geometry" />
        </mxCell>
        <mxCell id="r8BIYTinJZO4QaLTLXx8-24" value="Research-unit:2&lt;div&gt;&lt;br&gt;&lt;div&gt;&lt;br&gt;&lt;/div&gt;&lt;/div&gt;" style="sketch=0;outlineConnect=0;fontColor=#232F3E;gradientColor=none;fillColor=#7AA116;strokeColor=none;dashed=0;verticalLabelPosition=bottom;verticalAlign=top;align=center;html=1;fontSize=12;fontStyle=0;aspect=fixed;pointerEvents=1;shape=mxgraph.aws4.iot_thing_industrial_pc;" vertex="1" parent="1">
          <mxGeometry x="530" y="150" width="78" height="78" as="geometry" />
        </mxCell>
        <mxCell id="r8BIYTinJZO4QaLTLXx8-25" value="" style="endArrow=none;html=1;rounded=0;fillColor=#ffe6cc;strokeColor=#d79b00;strokeWidth=5;exitX=0.975;exitY=0.975;exitDx=0;exitDy=0;exitPerimeter=0;" edge="1" parent="1" source="r8BIYTinJZO4QaLTLXx8-10" target="r8BIYTinJZO4QaLTLXx8-23">
          <mxGeometry width="50" height="50" relative="1" as="geometry">
            <mxPoint x="420" y="200" as="sourcePoint" />
            <mxPoint x="240" y="168" as="targetPoint" />
            <Array as="points">
              <mxPoint x="379" y="160" />
            </Array>
          </mxGeometry>
        </mxCell>
        <mxCell id="r8BIYTinJZO4QaLTLXx8-26" value="&lt;div&gt;&lt;u&gt;&lt;b&gt;IP:&lt;/b&gt;&lt;/u&gt;&lt;/div&gt;-10.0.0.1&lt;br&gt;-10.0.0.2&lt;br&gt;-10.0.0.3&lt;br&gt;&lt;div&gt;-10.0.0.4&lt;br&gt;&lt;/div&gt;" style="strokeWidth=1;shadow=0;dashed=0;align=center;html=1;shape=mxgraph.mockup.text.bulletedList;textColor=#666666;mainText=,,,,;textSize=17;bulletStyle=none;strokeColor=none;fillColor=none;align=left;verticalAlign=top;fontSize=17;fontColor=#666666;" vertex="1" parent="1">
          <mxGeometry x="240" y="170" width="150" height="135" as="geometry" />
        </mxCell>
      </root>
    </mxGraphModel>
  </diagram>
</mxfile>
